/* XPM */
static char * marker_xpm[] = {
"7 7 3 1",
" 	c None",
".	c #0000FF",
"+	c #FFFFFF",
"  ...  ",
" .+++. ",
".+...+.",
".+. .+.",
".+...+.",
" .+++. ",
"  ...  "};
